<svg xmlns="http://www.w3.org/2000/svg" width="81" height="80" fill="none" viewBox="0 0 81 80">
    <g fill="#222" clip-path="url(#a)">
        <path d="M37.184 54.11c.61-.603.61-1.6 0-2.203a1.6 1.6 0 0 0-2.23 0c-.61.602-.61 1.6 0 2.202.632.623 1.62.623 2.23 0zM29.718 17.143c0 9.454 7.781 17.143 17.35 17.143 9.57 0 17.352-7.689 17.352-17.143C64.42 7.688 56.638 0 47.069 0c-9.57 0-17.351 7.688-17.351 17.143zm31.547 0c0 7.73-6.372 14.026-14.196 14.026s-14.197-6.296-14.197-14.026c0-7.73 6.373-14.026 14.197-14.026 7.824 0 14.196 6.296 14.196 14.026z"/>
        <path d="M18.235 79.335a1.6 1.6 0 0 0 2.229.02l7.655-7.438a4.628 4.628 0 0 0 1.115-4.842l1.64-1.558a4.712 4.712 0 0 1 3.281-1.31h20.969c3.723 0 7.235-1.412 9.906-3.968.105-.104-.841.997 14.302-16.873 2.25-2.618 1.913-6.566-.758-8.79-2.65-2.202-6.604-1.89-8.854.686l-9.296 9.455a6.359 6.359 0 0 0-4.9-2.327H37.94a20.444 20.444 0 0 0-7.887-1.559c-7.592 0-14.217 3.47-17.792 9.953a4.82 4.82 0 0 0-4.228 1.289L.547 59.512c-.61.602-.61 1.579 0 2.202l17.688 17.621zm11.798-35.408c2.419 0 4.753.478 6.94 1.434.19.083.421.125.632.125h17.919c1.703 0 3.154 1.371 3.154 3.117 0 1.724-1.409 3.116-3.154 3.116H42.652c-.862 0-1.577.707-1.577 1.559s.715 1.558 1.577 1.558h12.872c3.47 0 6.31-2.805 6.31-6.233 0-.27-.022-.54-.064-.81 9.002-9.144 10.264-10.432 10.327-10.494 1.114-1.31 3.112-1.476 4.437-.374 1.325 1.101 1.493 3.075.379 4.405L62.759 58.036a11.056 11.056 0 0 1-7.635 3.034H34.155a7.836 7.836 0 0 0-5.468 2.182l-1.346 1.267-12.345-12.197c2.88-5.34 8.307-8.395 15.037-8.395zm-19.77 10.348a1.605 1.605 0 0 1 1.956-.228c.274.166-.504-.54 13.65 13.444.63.623.589 1.62 0 2.203l-6.52 6.337-15.5-15.418 6.415-6.338zM45.176 7.792v1.829c-1.83.644-3.155 2.369-3.155 4.405 0 2.577 2.124 4.675 4.732 4.675.863 0 1.578.707 1.578 1.559s-.715 1.558-1.578 1.558c-.673 0-1.409-.415-2.04-1.184a1.587 1.587 0 0 0-2.229-.187 1.542 1.542 0 0 0-.19 2.202c.842.998 1.83 1.683 2.882 2.037v1.828c0 .852.715 1.559 1.577 1.559.863 0 1.578-.707 1.578-1.559v-1.828c1.83-.644 3.155-2.37 3.155-4.405 0-2.577-2.125-4.676-4.733-4.676-.862 0-1.577-.706-1.577-1.558 0-.852.715-1.559 1.577-1.559.568 0 1.157.291 1.704.81.631.603 1.62.582 2.23-.04.61-.624.588-1.6-.043-2.203-.799-.77-1.598-1.206-2.313-1.434V7.813c0-.852-.715-1.558-1.578-1.558a1.535 1.535 0 0 0-1.577 1.537z"/>
    </g>
    <defs>
        <clipPath id="a">
            <path fill="#fff" d="M0 0h80.825v80H0z"/>
        </clipPath>
    </defs>
</svg>
