<svg xmlns="http://www.w3.org/2000/svg" width="80" height="80" fill="none" viewBox="0 0 80 80">
    <g fill="#222" clip-path="url(#a)">
        <path d="M9.23 35.604a1.56 1.56 0 1 0-2.21 2.209 1.56 1.56 0 1 0 2.21-2.209zM27.188 0a7.353 7.353 0 0 0-7.355 7.354v2a7.353 7.353 0 0 0 7.355 7.354 7.353 7.353 0 0 0 7.354-7.354v-2A7.353 7.353 0 0 0 27.187 0zm4.229 9.354a4.232 4.232 0 0 1-4.23 4.23 4.232 4.232 0 0 1-4.229-4.23v-2a4.232 4.232 0 0 1 4.23-4.229 4.232 4.232 0 0 1 4.229 4.23v2zM52.813 0a7.353 7.353 0 0 0-7.355 7.354v2a7.353 7.353 0 0 0 7.355 7.354 7.353 7.353 0 0 0 7.354-7.354v-2A7.353 7.353 0 0 0 52.812 0zm4.229 9.354a4.232 4.232 0 0 1-4.23 4.23 4.232 4.232 0 0 1-4.229-4.23v-2a4.232 4.232 0 0 1 4.23-4.229 4.232 4.232 0 0 1 4.229 4.23v2z"/>
        <path d="M71.625 27.02A7.354 7.354 0 0 0 73 22.75v-2a7.353 7.353 0 0 0-7.354-7.354 7.353 7.353 0 0 0-7.354 7.354v2c0 1.583.5 3.063 1.375 4.27a9.013 9.013 0 0 0-6.813 3.96c-1.52-2.23-3.979-3.75-6.812-3.96a7.354 7.354 0 0 0 1.375-4.27v-2a7.353 7.353 0 0 0-7.355-7.354 7.353 7.353 0 0 0-7.354 7.354v2c0 1.583.5 3.063 1.375 4.27a9.013 9.013 0 0 0-6.812 3.96c-1.521-2.23-3.98-3.75-6.813-3.96a7.354 7.354 0 0 0 1.375-4.27v-2a7.353 7.353 0 0 0-7.354-7.354 7.353 7.353 0 0 0-7.354 7.354v2c0 1.583.5 3.063 1.375 4.27-4.792.355-8.5 4.272-8.5 9.043v10.916c0 3.938 2.833 7.25 6.563 7.98v23.478c0 .855.708 1.563 1.562 1.563h12.5c.854 0 1.563-.708 1.563-1.563V54.959a8.116 8.116 0 0 0 5-3.187 8.116 8.116 0 0 0 5 3.187v23.48c0 .854.708 1.562 1.562 1.562h12.5c.854 0 1.563-.708 1.563-1.563V54.959a8.116 8.116 0 0 0 5-3.187 8.116 8.116 0 0 0 5 3.187v23.48c0 .854.708 1.562 1.562 1.562h12.5c.854 0 1.563-.708 1.563-1.563v-7.979c0-.854-.709-1.562-1.563-1.562s-1.563.708-1.563 1.562v6.417h-3.124V57.958c0-.854-.709-1.562-1.563-1.562s-1.563.708-1.563 1.562v18.917h-3.124V51.667h9.374v6.291c0 .855.709 1.563 1.563 1.563s1.563-.709 1.563-1.563v-3.02c3.729-.73 6.562-4.021 6.562-7.98V36.042c0-4.75-3.708-8.667-8.375-9.021zm-61.48-6.25a4.232 4.232 0 0 1 4.23-4.228 4.232 4.232 0 0 1 4.23 4.229v2A4.232 4.232 0 0 1 14.374 27a4.232 4.232 0 0 1-4.23-4.23v-2zm8.918 56.105h-3.125V57.958c0-.854-.709-1.562-1.563-1.562s-1.563.708-1.563 1.562v18.917H9.688V51.667h9.374v25.208zm6.562-29.896c0 2.209-1.438 4.084-3.438 4.75v-15c0-.854-.708-1.562-1.562-1.562-.854 0-1.563.708-1.563 1.562v11.813H9.688v-6.209c0-.854-.708-1.562-1.562-1.562-.854 0-1.563.708-1.563 1.562v9.375c-2-.666-3.437-2.541-3.437-4.75V36.042a5.948 5.948 0 0 1 5.938-5.938h10.624a5.948 5.948 0 0 1 5.938 5.938v10.937zm10.146-26.208A4.232 4.232 0 0 1 40 16.54a4.232 4.232 0 0 1 4.23 4.23v2A4.232 4.232 0 0 1 40 27a4.232 4.232 0 0 1-4.23-4.23v-2zm8.916 56.104h-3.124V57.958c0-.854-.709-1.562-1.563-1.562s-1.563.708-1.563 1.562v18.917h-3.124V51.667h9.374v25.208zm6.563-29.896c0 2.209-1.438 4.084-3.438 4.75v-15c0-.854-.708-1.562-1.562-1.562-.854 0-1.563.708-1.563 1.562v11.813h-9.374V36.708c0-.854-.709-1.562-1.563-1.562s-1.563.708-1.563 1.562v15c-2-.666-3.437-2.541-3.437-4.75V36.042a5.948 5.948 0 0 1 5.938-5.938h10.624a5.948 5.948 0 0 1 5.938 5.938v10.937zm10.146-26.208a4.232 4.232 0 0 1 4.229-4.23 4.232 4.232 0 0 1 4.23 4.23v2A4.232 4.232 0 0 1 65.624 27a4.232 4.232 0 0 1-4.23-4.23v-2zm15.479 26.208c0 2.209-1.438 4.084-3.438 4.75v-15c0-.854-.708-1.562-1.562-1.562-.854 0-1.563.708-1.563 1.562v11.813h-9.374V36.708c0-.854-.709-1.562-1.563-1.562s-1.563.708-1.563 1.562v15c-2-.666-3.437-2.541-3.437-4.75V36.042a5.948 5.948 0 0 1 5.938-5.938h10.624a5.948 5.948 0 0 1 5.938 5.938v10.937z"/>
        <path d="M72.98 63.167a1.56 1.56 0 1 0-2.21 2.208 1.56 1.56 0 1 0 2.21-2.208z"/>
    </g>
    <defs>
        <clipPath id="a">
            <path fill="#fff" d="M0 0h80v80H0z"/>
        </clipPath>
    </defs>
</svg>
