<svg xmlns="http://www.w3.org/2000/svg" width="96" height="80" fill="none" viewBox="0 0 96 80">
    <g fill="#222" clip-path="url(#a)">
        <path d="M87.7 8.525a1.873 1.873 0 1 0-2.65 2.65 1.873 1.873 0 1 0 2.65-2.65zM44.65 52.675a1.873 1.873 0 1 0-2.65 2.65A1.873 1.873 0 0 0 45.2 54a2.113 2.113 0 0 0-.55-1.325z"/>
        <path d="M92.25 14.75c-.5-.9-1.65-1.225-2.55-.7-.9.5-1.225 1.65-.7 2.55 5.575 9.8 3.9 22.2-4.1 30.175L83.475 48.2c-.35-.9-.875-1.75-1.6-2.475L62.6 26.45a13.258 13.258 0 0 0 3.45-2.475l3.7-3.675a1.886 1.886 0 0 0 0-2.65 1.886 1.886 0 0 0-2.65 0l-3.7 3.7a9.176 9.176 0 0 1-6.5 2.7h-7.375c-.5 0-.975.2-1.325.55l-5.675 5.65c-1.675 1.675-4.4 1.675-6.1 0-1.675-1.675-1.675-4.4 0-6.1l12.925-12.9c7.9-7.9 20.2-9.625 29.95-4.225.9.5 2.05.175 2.55-.725.5-.9.175-2.05-.725-2.55C75.75.75 69.425-.425 63.3.375 57.575 1.15 52.325 3.55 48.025 7.35A28.68 28.68 0 0 0 28.9.1c-7.725 0-14.975 3-20.425 8.45C3 14.025 0 21.275 0 29s3 14.975 8.45 20.425l.7.7c.125.125.25.225.4.3.125 1.625.8 3.2 2.05 4.45a7.041 7.041 0 0 0 5 2.075h.275v.275c0 1.9.725 3.65 2.075 5a7.084 7.084 0 0 0 5 2.075h.275v.275c0 1.9.725 3.65 2.075 5a7.041 7.041 0 0 0 5 2.075h.275c-.075 1.9.6 3.825 2.05 5.275a7.035 7.035 0 0 0 5 2.075c1.9 0 3.65-.725 5-2.075L46.25 74.3l3.55 3.55a7.035 7.035 0 0 0 5 2.075c1.875 0 3.65-.725 5-2.075a7.01 7.01 0 0 0 2.05-5.35h.35c1.8 0 3.625-.7 5-2.075a7.033 7.033 0 0 0 2.05-5.275h.275c1.875 0 3.65-.725 5-2.075a7.033 7.033 0 0 0 2.05-5.275h.275c1.9 0 3.65-.725 5-2.075a6.975 6.975 0 0 0 1.525-2.3c.175-.1.35-.2.5-.35L87.5 49.45c9.225-9.175 11.15-23.45 4.75-34.7zM16.6 53.2c-.875 0-1.725-.35-2.35-.975a3.289 3.289 0 0 1-.975-2.35c0-.875.35-1.725.975-2.35L17.5 44.3a3.289 3.289 0 0 1 2.35-.975c.875 0 1.725.35 2.35.975 1.3 1.3 1.3 3.4 0 4.7l-3.225 3.225a3.39 3.39 0 0 1-2.375.975zm5 6.375a3.289 3.289 0 0 1-.975-2.35c0-.875.35-1.725.975-2.35l3.225-3.225a3.289 3.289 0 0 1 2.35-.975c.875 0 1.725.35 2.35.975 1.3 1.3 1.3 3.4 0 4.7L26.3 59.575a3.366 3.366 0 0 1-4.7 0zm7.35 7.325a3.289 3.289 0 0 1-.975-2.35c0-.875.35-1.725.975-2.35l3.225-3.225a3.289 3.289 0 0 1 2.35-.975c.875 0 1.725.35 2.35.975 1.3 1.3 1.3 3.4 0 4.7L33.65 66.9a3.32 3.32 0 0 1-4.7 0zm15.25 4.125l-3.225 3.225a3.289 3.289 0 0 1-2.35.975c-.9 0-1.725-.35-2.35-.975a3.32 3.32 0 0 1 0-4.7l3.225-3.225a3.289 3.289 0 0 1 2.35-.975c.9 0 1.725.35 2.35.975s.975 1.45.975 2.35c0 .875-.35 1.725-.975 2.35zm35.025-17.95a3.289 3.289 0 0 1-2.35.975c-.875 0-1.725-.35-2.35-.975l-7.8-7.8-7.35-7.35a1.886 1.886 0 0 0-2.65 0 1.886 1.886 0 0 0 0 2.65l15.15 15.15c1.3 1.3 1.3 3.4 0 4.7a3.289 3.289 0 0 1-2.35.975c-.875 0-1.725-.35-2.35-.975l-15.15-15.15a1.886 1.886 0 0 0-2.65 0 1.886 1.886 0 0 0 0 2.65l7.35 7.35 7.8 7.8c1.3 1.3 1.3 3.4 0 4.7a3.32 3.32 0 0 1-4.7 0l-7.8-7.8c-.15-.15-.3-.25-.475-.35L49.325 57.4a1.886 1.886 0 0 0-2.65 0 1.886 1.886 0 0 0 0 2.65l10.45 10.45c1.3 1.3 1.3 3.4 0 4.7a3.289 3.289 0 0 1-2.35.975c-.875 0-1.725-.35-2.35-.975l-3.975-3.975c.3-.8.475-1.65.475-2.525 0-1.9-.725-3.65-2.075-5a7.035 7.035 0 0 0-5-2.075h-.275c.075-1.9-.6-3.825-2.05-5.275a7.035 7.035 0 0 0-5-2.075h-.275c.075-1.9-.6-3.825-2.05-5.275a7.035 7.035 0 0 0-5-2.075h-.275c.075-1.9-.6-3.825-2.05-5.275-2.75-2.75-7.25-2.75-10 0l-3.225 3.225c-.4.4-.75.85-1.05 1.325A24.858 24.858 0 0 1 3.75 29c0-6.725 2.625-13.025 7.35-17.775 4.75-4.75 11.05-7.35 17.775-7.35 6.1 0 11.875 2.15 16.425 6.125L33.8 21.5a7.997 7.997 0 0 0-2.35 5.7c0 2.15.85 4.175 2.35 5.7a8.002 8.002 0 0 0 5.7 2.35 8.002 8.002 0 0 0 5.7-2.35l5.1-5.1h6.6c.55 0 1.075-.025 1.625-.1l20.7 20.7c1.3 1.275 1.3 3.375 0 4.675z"/>
    </g>
    <defs>
        <clipPath id="a">
            <path fill="#fff" d="M0 0h96v80H0z"/>
        </clipPath>
    </defs>
</svg>
